<?xml version="1.0" encoding="utf-8"?>
<!DOCTYPE svg PUBLIC "-//W3C//DTD SVG 1.1//EN" "http://www.w3.org/Graphics/SVG/1.1/DTD/svg11.dtd">
<svg version="1.1" id="Ebene_1" xmlns="http://www.w3.org/2000/svg" xmlns:xlink="http://www.w3.org/1999/xlink" x="0px" y="0px"
	 width="350px" height="200px" viewBox="-240.5 431.5 350 200" enable-background="new -240.5 431.5 350 200" xml:space="preserve">
<path fill="#FFCC00" d="M-75.28,514.76c0,34.94-28.3,63.25-63.21,63.25c-34.91,0-63.2-28.32-63.2-63.25
	c0-34.94,28.3-63.26,63.2-63.26C-103.58,451.5-75.28,479.82-75.28,514.76z"/>
<path fill="#0099FF" d="M44.53,499.89c32.03-0.68,38.52,36.26,14.47,46.58l-201.26,0.63c-32.15-8.37-21.17-66.77,23.9-48.47
	c2.95-30.91,54.91-42.58,70.44-15.1l1.26-0.63C-38.39,437.52,44.66,445.49,44.53,499.89L44.53,499.89z M-11.13,601.96
	c0,3.67-2.95,6.64-6.61,6.64c-3.64,0-6.6-2.97-6.6-6.64c0-3.67,6.6-14.77,6.6-14.77S-11.13,598.29-11.13,601.96z M-11.13,570.49
	c0,3.67-2.95,6.64-6.61,6.64c-3.64,0-6.6-2.97-6.6-6.64c0-3.67,6.6-14.76,6.6-14.76S-11.13,566.82-11.13,570.49z M13.67,601.96
	c0,3.67-2.95,6.64-6.6,6.64c-3.65,0-6.61-2.97-6.61-6.64c0-3.67,6.61-14.77,6.61-14.77S13.67,598.29,13.67,601.96z M13.67,570.49
	c0,3.67-2.95,6.64-6.6,6.64c-3.65,0-6.61-2.97-6.61-6.64c0-3.67,6.61-14.76,6.61-14.76S13.67,566.82,13.67,570.49z M38.47,601.96
	c0,3.67-2.96,6.64-6.6,6.64c-3.65,0-6.6-2.97-6.6-6.64c0-3.67,6.6-14.77,6.6-14.77S38.47,598.29,38.47,601.96z M38.47,570.49
	c0,3.67-2.96,6.64-6.6,6.64c-3.65,0-6.6-2.97-6.6-6.64c0-3.67,6.6-14.76,6.6-14.76S38.47,566.82,38.47,570.49z"/>
<g>
	<path fill="#FF6600" d="M-208.15,575.93c1.59-0.73,3.8-1.72,7.38-1.72c7.24,0,8.92,3.53,8.92,9.38v10.19
		c0,1.67,0.18,3.21,0.32,4.12h-5.07c-0.27-0.9-0.31-2.04-0.31-3.17h-0.09c-1.4,1.9-3.17,3.53-6.52,3.53c-3.62,0-6.97-2.5-6.97-6.84
		c0-6.34,5.16-7.93,12.27-7.93h1.13v-0.87c0-2.31-1.13-4.43-4.34-4.43c-2.81,0-5.3,1.36-6.38,2.26L-208.15,575.93L-208.15,575.93z
		 M-197.1,586.49h-0.5c-4.8,0-7.65,0.99-7.65,4.39c0,2.13,1.41,3.58,3.58,3.58c3.35,0,4.57-2.49,4.57-6.66V586.49L-197.1,586.49z
		 M-184.55,569.77l5.61-1.72v6.53h4.66v4.12h-4.66v12.09c0,2.49,0.91,3.22,2.53,3.22c1,0,1.72-0.27,2.13-0.5v3.99
		c-0.86,0.41-2.08,0.77-3.76,0.77c-4.17,0-6.52-1.9-6.52-6.79v-12.78h-3.71v-4.12h3.71V569.77z M-144.9,571.54h-0.09l-7.92,26.37
		h-4.12l-7.56-26.37h-0.09v26.37h-5.25v-31.63h8.65l6.52,23.6h0.09l6.65-23.6h8.38v31.62h-5.26L-144.9,571.54L-144.9,571.54z
		 M-132.97,566.28h16.61v4.62h-10.82v8.43h10.23v4.62h-10.23v9.33h11.27v4.62h-17.07V566.28z M-105.67,570.9h-7.06v-4.61h19.87v4.62
		h-7.01v27h-5.79V570.9z M-88.55,566.28h16.61v4.62h-10.82v8.43h10.24v4.62h-10.24v9.33h11.27v4.62h-17.07V566.28z M-54.59,565.83
		c6.56,0,12.58,4.89,12.58,16.26c0,11.37-6.02,16.27-12.58,16.27c-6.57,0-12.59-4.89-12.59-16.27
		C-67.18,570.72-61.16,565.83-54.59,565.83L-54.59,565.83z M-54.59,593.91c3.66,0,6.6-3.13,6.6-11.83c0-8.7-2.94-11.83-6.61-11.83
		c-3.67,0-6.61,3.13-6.61,11.83C-61.21,590.78-58.27,593.91-54.59,593.91L-54.59,593.91z"/>
</g>
</svg>
